<?xml version="1.0" standalone="no"?><!DOCTYPE svg PUBLIC "-//W3C//DTD SVG 1.1//EN" "http://www.w3.org/Graphics/SVG/1.1/DTD/svg11.dtd"><svg t="1546477295204" class="icon" style="" viewBox="0 0 1024 1024" version="1.1" xmlns="http://www.w3.org/2000/svg" p-id="2784" xmlns:xlink="http://www.w3.org/1999/xlink" width="32" height="32"><defs><style type="text/css"></style></defs><path d="M900.266667 477.866667h-59.733334c-8.533333 0-17.066667 8.533333-17.066666 17.066666v328.533334H234.666667v-328.533334c0-8.533333-8.533333-17.066667-17.066667-17.066666H157.866667c-8.533333 0-17.066667 8.533333-17.066667 17.066666v405.333334c0 8.533333 4.266667 17.066667 17.066667 17.066666h742.4c8.533333 0 17.066667-8.533333 17.066666-17.066666v-405.333334c0-12.8-8.533333-17.066667-17.066666-17.066666zM328.533333 362.666667h149.333334V640c0 8.533333 4.266667 17.066667 17.066666 17.066667H554.666667c8.533333 0 17.066667-8.533333 17.066666-17.066667V362.666667h149.333334c8.533333 0 12.8-4.266667 17.066666-8.533334s0-12.8-4.266666-17.066666l-196.266667-221.866667c-8.533333-4.266667-17.066667-4.266667-21.333333 0L320 341.333333c-4.266667 0-4.266667 12.8-4.266667 12.8 4.266667 4.266667 8.533333 12.8 12.8 8.533334z" p-id="2785" fill="#2c2c2c"></path></svg>